# xmcd
#
# Track frame offsets: 
#        150
#        16367
#        33012
#        42852
#        58159
#        73551
#        90916
#        101788
#        120050
#        133454
#        144589
#        159696
#        177100
#        200102
#        217275
#        233435
#        250818
#        273281
#        285511
#        301413
#
# Disc length: 4351 seconds
#
# Revision: 0
# Processed by: cddbd v1.5.2PL0 Copyright (c) Steve Scherf et al.
# Submitted via: ExactAudioCopy v0.99pb5
#
DISCID=1c10fd14
DTITLE=Starogradski 1 - Starogradski 1
DYEAR=2000
DGENRE=Ethnic
TTITLE0=Aleksandar Sasic - Svilen konec
TTITLE1=Dubravka Nesovic - Ima dana
TTITLE2=Spomenari - Izadji iz moje duse
TTITLE3=Svilen konac - Hej majstore s violinom
TTITLE4=Svilen konac - Gospogjica Violeta
TTITLE5=Stari zvuci - Kad je dedo lumpovao
TTITLE6=Zvonko Bogdan - Fijaker stari
TTITLE7=Zivan Milic - Jesenje lisce
TTITLE8=Predrag Gojkovic-Cune - Ne vredi plakati 
TTITLE9=Zvonko Bogdan - Govori se da me varas
TTITLE10=Zivan Milic - Jesenje lisce
TTITLE11=Predrag Gojkovic-Cune - Ti bi htela pesmom da mi kazes
TTITLE12=Zvonko Bogdan - Vec odavno spremam mog mrkoga
TTITLE13=Mile Bogdanovic - Osam tamburasa
TTITLE14=Sektet Skadarlija -Zapevala sojka ptica
TTITLE15=Zivan Milic - Imam jednu zelju
TTITLE16=Predrag Gojkovic-Cune - Bele ruze, nezne ruze
TTITLE17=Aca Trendafilovic - Kad me vidis na sokaku
TTITLE18=Sektet Skadarlija - Cojle Manojle
TTITLE19=Zoran Gajic - U Novom Sadu
EXTD=
EXTT0=
EXTT1=
EXTT2=
EXTT3=
EXTT4=
EXTT5=
EXTT6=
EXTT7=
EXTT8=
EXTT9=
EXTT10=
EXTT11=
EXTT12=
EXTT13=
EXTT14=
EXTT15=
EXTT16=
EXTT17=
EXTT18=
EXTT19=
PLAYORDER=
